<svg width="309" height="291" viewBox="0 0 309 291" fill="none" xmlns="http://www.w3.org/2000/svg">
<path d="M6.90918 215.334V243.776H14.0381H14.0625C15.9831 243.776 17.6514 243.085 19.0674 241.701C20.4671 240.334 21.167 238.674 21.167 236.721V222.365C21.167 220.428 20.4671 218.768 19.0674 217.385C17.6676 216.001 15.9993 215.31 14.0625 215.31H14.0381L6.90918 215.334ZM14.0381 247.512H3.00293V213.283L6.90918 211.574H14.0381H14.0625C17.1061 211.574 19.7021 212.64 21.8506 214.772C23.999 216.888 25.0732 219.444 25.0732 222.438V236.647C25.0732 239.642 23.999 242.206 21.8506 244.338C19.7021 246.454 17.1061 247.512 14.0625 247.512H14.0381ZM53.125 221.975C53.125 221.975 53.125 227.028 53.125 237.136C53.125 240.131 52.0508 242.694 49.9023 244.826C47.7539 246.942 45.1579 248 42.1143 248C39.0544 248 36.4583 246.942 34.3262 244.826C32.1777 242.694 31.1035 240.131 31.1035 237.136V221.975C31.1035 218.98 32.1777 216.424 34.3262 214.309C36.4746 212.176 39.0706 211.11 42.1143 211.11C45.1579 211.11 47.7539 212.176 49.9023 214.309C52.0508 216.424 53.125 218.98 53.125 221.975ZM35.0098 221.901V237.209C35.0098 239.146 35.7015 240.806 37.085 242.189C38.4684 243.573 40.1449 244.265 42.1143 244.265C44.0511 244.265 45.7194 243.573 47.1191 242.189C48.5026 240.822 49.2025 239.162 49.2188 237.209V221.901C49.2025 219.948 48.5026 218.288 47.1191 216.921C45.7194 215.537 44.0511 214.846 42.1143 214.846C40.1449 214.846 38.4684 215.537 37.085 216.921C35.7015 218.288 35.0098 219.948 35.0098 221.901ZM68.2373 248V215.505H57.251L58.96 211.599H83.1299L81.4209 215.505H72.1436V246.291L68.2373 248ZM91.1377 215.334V243.776H98.2666H98.291C100.212 243.776 101.88 243.085 103.296 241.701C104.696 240.334 105.396 238.674 105.396 236.721V222.365C105.396 220.428 104.696 218.768 103.296 217.385C101.896 216.001 100.228 215.31 98.291 215.31H98.2666L91.1377 215.334ZM98.2666 247.512H87.2314V213.283L91.1377 211.574H98.2666H98.291C101.335 211.574 103.931 212.64 106.079 214.772C108.228 216.888 109.302 219.444 109.302 222.438V236.647C109.302 239.642 108.228 242.206 106.079 244.338C103.931 246.454 101.335 247.512 98.291 247.512H98.2666ZM121.191 231.521V243.605H138.574L136.865 247.512H117.285V213.283L121.191 211.574L135.4 211.599L133.691 215.505H121.191V227.614H135.4L133.691 231.521H121.191ZM152.393 248L141.528 212.819L145.093 211.11L154.419 241.311L163.794 211.11L167.31 212.819L156.787 246.291L152.393 248ZM180.249 247.072C179.631 246.438 179.321 245.673 179.321 244.777C179.321 243.882 179.631 243.125 180.249 242.507C180.868 241.872 181.616 241.555 182.495 241.555C183.374 241.555 184.123 241.872 184.741 242.507C185.36 243.125 185.669 243.882 185.669 244.777C185.669 245.673 185.36 246.438 184.741 247.072C184.123 247.691 183.374 248 182.495 248C181.616 248 180.868 247.691 180.249 247.072ZM210.547 225.832C213.721 226.19 216.317 227.346 218.335 229.299C220.483 231.382 221.558 233.938 221.558 236.965V237.038C221.558 240.131 220.5 242.727 218.384 244.826C216.252 246.942 213.656 248 210.596 248C207.503 248 204.907 246.942 202.808 244.826C200.659 242.645 199.585 240.082 199.585 237.136V236.818L203.491 235.109V237.209C203.491 239.162 204.191 240.822 205.591 242.189C206.991 243.573 208.659 244.265 210.596 244.265C212.565 244.265 214.242 243.573 215.625 242.189C217.008 240.79 217.7 239.121 217.7 237.185C217.7 235.15 217.033 233.498 215.698 232.229C214.168 230.78 212.5 229.991 210.693 229.86C207.601 229.616 205.176 228.615 203.418 226.857C201.595 225.051 200.684 222.87 200.684 220.314C200.684 217.743 201.579 215.57 203.369 213.796C205.16 212.006 207.324 211.11 209.863 211.11C212.435 211.11 214.608 212.006 216.382 213.796C218.188 215.619 219.092 217.784 219.092 220.29V220.534L215.186 222.292V220.363C215.153 218.85 214.632 217.596 213.623 216.604C212.565 215.562 211.312 215.041 209.863 215.041C208.415 215.041 207.186 215.546 206.177 216.555C205.135 217.613 204.614 218.866 204.614 220.314C204.614 221.763 205.135 223.008 206.177 224.05C207.153 225.026 208.61 225.62 210.547 225.832ZM229.712 211.599H249.292L247.583 215.505H240.601V243.605H249.292L247.583 247.512H228.003L229.712 243.605H236.694V215.505H228.003L229.712 211.599ZM264.771 248V215.505H253.784L255.493 211.599H279.663L277.954 215.505H268.677V246.291L264.771 248ZM289.648 231.521V243.605H307.031L305.322 247.512H285.742V213.283L289.648 211.574L303.857 211.599L302.148 215.505H289.648V227.614H303.857L302.148 231.521H289.648Z" fill="#525151"/>
<path d="M59.3701 278.374C59.3701 279.122 59.6427 279.749 60.188 280.253C60.7414 280.766 61.3721 281.022 62.0801 281.022C62.7637 281.022 63.3659 280.766 63.8867 280.253C64.3913 279.757 64.6517 279.13 64.668 278.374V273.955C64.6517 273.198 64.3913 272.571 63.8867 272.075C63.3659 271.562 62.7148 271.306 61.9336 271.306C61.25 271.306 60.6519 271.562 60.1392 272.075C59.6346 272.579 59.3783 273.181 59.3701 273.881V273.955V278.374ZM66.6211 264.555V278.41C66.6211 279.68 66.1694 280.762 65.2661 281.657C64.3628 282.552 63.2764 283 62.0068 283C60.7373 283 59.6549 282.552 58.7598 281.657C57.8646 280.762 57.417 279.68 57.417 278.41V273.918C57.417 272.648 57.8646 271.566 58.7598 270.671C59.6549 269.776 60.7373 269.328 62.0068 269.328C63.0078 269.328 63.8949 269.605 64.668 270.158V265.41L66.6211 264.555ZM78.7061 278.288L80.6592 277.434V278.41C80.6592 279.68 80.2116 280.762 79.3164 281.657C78.4212 282.552 77.3389 283 76.0693 283C74.7998 283 73.7134 282.552 72.8101 281.657C71.9067 280.762 71.4551 279.68 71.4551 278.41V270.183L73.4082 269.328V278.374C73.4245 279.13 73.6849 279.757 74.1895 280.253C74.7103 280.766 75.3613 281.022 76.1426 281.022C76.8262 281.022 77.4243 280.746 77.937 280.192C78.4497 279.639 78.7061 279.004 78.7061 278.288ZM71.2842 267.314C70.9749 266.997 70.8203 266.614 70.8203 266.167C70.8203 265.719 70.9749 265.34 71.2842 265.031C71.5934 264.714 71.9678 264.555 72.4072 264.555C72.8467 264.555 73.221 264.714 73.5303 265.031C73.8395 265.34 73.9941 265.719 73.9941 266.167C73.9941 266.614 73.8395 266.997 73.5303 267.314C73.221 267.623 72.8467 267.778 72.4072 267.778C71.9678 267.778 71.5934 267.623 71.2842 267.314ZM85.4932 283V274.748H84.0039L84.8584 272.795H85.4932V269.145C85.4932 267.875 85.9408 266.793 86.8359 265.898C87.7311 265.003 88.8135 264.555 90.083 264.555C91.377 264.555 92.4634 265.003 93.3423 265.898C94.2456 266.826 94.6973 267.908 94.6973 269.145V269.194L92.7441 270.048V269.182C92.7279 268.425 92.4674 267.798 91.9629 267.302C91.4339 266.781 90.8073 266.521 90.083 266.521C89.3587 266.521 88.7362 266.781 88.2153 267.302C87.7026 267.814 87.4463 268.429 87.4463 269.145C87.4463 269.161 87.4463 269.174 87.4463 269.182V272.795H93.208L92.3535 274.748H87.4463V282.146L85.4932 283ZM99.5312 283V274.748H98.042L98.8965 272.795H99.5312V269.145C99.5312 267.875 99.9788 266.793 100.874 265.898C101.769 265.003 102.852 264.555 104.121 264.555C105.415 264.555 106.501 265.003 107.38 265.898C108.284 266.826 108.735 267.908 108.735 269.145V269.194L106.782 270.048V269.182C106.766 268.425 106.506 267.798 106.001 267.302C105.472 266.781 104.845 266.521 104.121 266.521C103.397 266.521 102.774 266.781 102.253 267.302C101.741 267.814 101.484 268.429 101.484 269.145C101.484 269.161 101.484 269.174 101.484 269.182V272.795H107.246L106.392 274.748H101.484V282.146L99.5312 283ZM118.232 281.022C118.916 281.022 119.518 280.766 120.039 280.253C120.544 279.757 120.804 279.13 120.82 278.374V278.203L122.773 277.336V278.41C122.773 279.549 122.285 280.64 121.309 281.682C120.479 282.561 119.429 283 118.159 283C116.89 283 115.807 282.552 114.912 281.657C114.017 280.762 113.569 279.68 113.569 278.41V273.918C113.569 272.648 114.017 271.566 114.912 270.671C115.807 269.776 116.89 269.328 118.159 269.328C119.38 269.328 120.466 269.776 121.418 270.671C122.322 271.517 122.773 272.6 122.773 273.918V275.065L115.522 278.288C115.522 279.061 115.779 279.712 116.292 280.241C116.804 280.762 117.451 281.022 118.232 281.022ZM118.086 271.306C117.402 271.306 116.804 271.562 116.292 272.075C115.779 272.587 115.522 273.202 115.522 273.918C115.522 273.934 115.522 273.946 115.522 273.955V276.152L120.808 273.796C120.767 273.112 120.511 272.539 120.039 272.075C119.518 271.562 118.867 271.306 118.086 271.306ZM127.607 283V273.918C127.607 272.648 128.055 271.566 128.95 270.671C129.845 269.776 130.928 269.328 132.197 269.328C133.491 269.328 134.578 269.776 135.457 270.671C136.36 271.599 136.812 272.681 136.812 273.918V273.967L134.858 274.821V273.955C134.842 273.198 134.582 272.571 134.077 272.075C133.556 271.562 132.942 271.306 132.234 271.306C131.493 271.306 130.863 271.562 130.342 272.075C129.821 272.587 129.561 273.202 129.561 273.918C129.561 273.934 129.561 273.946 129.561 273.955V282.146L127.607 283ZM146.309 281.022C146.992 281.022 147.594 280.766 148.115 280.253C148.62 279.757 148.88 279.13 148.896 278.374V278.203L150.85 277.336V278.41C150.85 279.549 150.361 280.64 149.385 281.682C148.555 282.561 147.505 283 146.235 283C144.966 283 143.883 282.552 142.988 281.657C142.093 280.762 141.646 279.68 141.646 278.41V273.918C141.646 272.648 142.093 271.566 142.988 270.671C143.883 269.776 144.966 269.328 146.235 269.328C147.456 269.328 148.542 269.776 149.495 270.671C150.398 271.517 150.85 272.6 150.85 273.918V275.065L143.599 278.288C143.599 279.061 143.855 279.712 144.368 280.241C144.88 280.762 145.527 281.022 146.309 281.022ZM146.162 271.306C145.479 271.306 144.88 271.562 144.368 272.075C143.855 272.587 143.599 273.202 143.599 273.918C143.599 273.934 143.599 273.946 143.599 273.955V276.152L148.884 273.796C148.844 273.112 148.587 272.539 148.115 272.075C147.594 271.562 146.943 271.306 146.162 271.306ZM155.684 283V273.918C155.684 272.648 156.131 271.566 157.026 270.671C157.922 269.776 159.004 269.328 160.273 269.328C161.543 269.328 162.629 269.776 163.533 270.671C164.436 271.566 164.888 272.648 164.888 273.918V282.146L162.935 283V273.955C162.918 273.198 162.658 272.571 162.153 272.075C161.632 271.562 161.018 271.306 160.31 271.306C159.578 271.306 158.947 271.566 158.418 272.087C157.897 272.591 157.637 273.202 157.637 273.918C157.637 273.934 157.637 273.946 157.637 273.955V282.146L155.684 283ZM176.973 278.288C176.973 278.288 177.624 278.003 178.926 277.434V278.41C178.926 279.68 178.478 280.762 177.583 281.657C176.688 282.552 175.605 283 174.336 283C173.066 283 171.98 282.552 171.077 281.657C170.173 280.762 169.722 279.68 169.722 278.41V271.525H168.208L169.062 269.572H169.722V265.41L171.675 264.555V269.572H177.876L177.021 271.525H171.675V278.374C171.691 279.139 171.951 279.765 172.456 280.253C172.985 280.766 173.604 281.022 174.312 281.022C175.036 281.022 175.662 280.762 176.191 280.241C176.712 279.737 176.973 279.086 176.973 278.288ZM201.387 283L196.296 270.183L198.079 269.328L202.4 280.217L206.746 269.304L208.503 270.158L203.584 282.146L201.387 283ZM219.087 278.288L221.04 277.434V278.41C221.04 279.68 220.592 280.762 219.697 281.657C218.802 282.552 217.72 283 216.45 283C215.181 283 214.094 282.552 213.191 281.657C212.288 280.762 211.836 279.68 211.836 278.41V270.183L213.789 269.328V278.374C213.805 279.13 214.066 279.757 214.57 280.253C215.091 280.766 215.742 281.022 216.523 281.022C217.207 281.022 217.805 280.746 218.318 280.192C218.831 279.639 219.087 279.004 219.087 278.288ZM211.665 267.314C211.356 266.997 211.201 266.614 211.201 266.167C211.201 265.719 211.356 265.34 211.665 265.031C211.974 264.714 212.349 264.555 212.788 264.555C213.228 264.555 213.602 264.714 213.911 265.031C214.22 265.34 214.375 265.719 214.375 266.167C214.375 266.614 214.22 266.997 213.911 267.314C213.602 267.623 213.228 267.778 212.788 267.778C212.349 267.778 211.974 267.623 211.665 267.314ZM230.537 281.022C231.221 281.022 231.823 280.766 232.344 280.253C232.848 279.757 233.109 279.13 233.125 278.374V278.203L235.078 277.336V278.41C235.078 279.549 234.59 280.64 233.613 281.682C232.783 282.561 231.733 283 230.464 283C229.194 283 228.112 282.552 227.217 281.657C226.322 280.762 225.874 279.68 225.874 278.41V273.918C225.874 272.648 226.322 271.566 227.217 270.671C228.112 269.776 229.194 269.328 230.464 269.328C231.685 269.328 232.771 269.776 233.723 270.671C234.626 271.517 235.078 272.6 235.078 273.918V275.065L227.827 278.288C227.827 279.061 228.083 279.712 228.596 280.241C229.109 280.762 229.756 281.022 230.537 281.022ZM230.391 271.306C229.707 271.306 229.109 271.562 228.596 272.075C228.083 272.587 227.827 273.202 227.827 273.918C227.827 273.934 227.827 273.946 227.827 273.955V276.152L233.113 273.796C233.072 273.112 232.816 272.539 232.344 272.075C231.823 271.562 231.172 271.306 230.391 271.306ZM238.838 279.667V270.183L240.791 269.328L240.779 279.619C240.779 280.026 240.913 280.371 241.182 280.656C241.45 280.941 241.768 281.083 242.134 281.083C242.516 281.083 242.842 280.941 243.11 280.656C243.387 280.363 243.525 280.021 243.525 279.631C243.525 279.631 243.525 279.627 243.525 279.619L243.538 270.183L245.491 269.328L245.479 279.619C245.479 280.026 245.613 280.371 245.881 280.656C246.15 280.941 246.467 281.083 246.833 281.083C247.208 281.083 247.533 280.941 247.81 280.656C248.087 280.371 248.225 280.026 248.225 279.619L248.237 270.183L250.19 269.328V279.68C250.19 280.591 249.865 281.372 249.214 282.023C248.563 282.674 247.778 283 246.858 283C245.906 283 245.12 282.683 244.502 282.048C243.851 282.683 243.07 283 242.158 283C241.182 283 240.388 282.683 239.778 282.048C239.159 281.405 238.846 280.611 238.838 279.667Z" fill="#F8981D"/>
<g opacity="0.975">
<g opacity="0.975">
<path d="M184.413 144.415H125.587V173.525H184.413V144.415Z" fill="#E5E5E5"/>
</g>
<g opacity="0.975">
<path d="M171.676 173.217H138.321V181.404C138.321 186.559 141.96 191.107 146.508 191.107H163.489C168.037 191.107 171.676 186.862 171.676 181.404V173.217Z" fill="#E5E5E5"/>
</g>
<g opacity="0.975">
<path d="M215.34 64.9651C215.34 29.7909 186.534 1.28767 151.966 3.10703C122.25 4.62316 97.3856 29.1844 94.9598 59.507C93.7469 74.9715 97.992 89.5264 105.876 101.049C115.579 114.997 122.553 114.694 124.676 131.675L125.586 144.41H184.411L185.018 133.494C187.444 115.604 194.418 115.301 204.424 100.442C211.398 90.436 215.34 78.307 215.34 64.9651Z" fill="#F8981D"/>
</g>
<g opacity="0.975">
<path d="M220.567 94.117L240.652 102.631L243.017 97.0519L222.932 88.5376L220.567 94.117Z" fill="#525151"/>
</g>
<g opacity="0.975">
<path d="M67.0096 29.7725L87.0945 38.2867L89.4597 32.7074L69.3747 24.1931L67.0096 29.7725Z" fill="#525151"/>
</g>
<g opacity="0.975">
<path d="M249 60.4216H227.168V66.4861H249V60.4216Z" fill="#525151"/>
</g>
<g opacity="0.975">
<path d="M82.8323 60.4216H61V66.4861H82.8323V60.4216Z" fill="#525151"/>
</g>
<g opacity="0.975">
<path d="M242.93 29.7913L240.565 24.212L220.479 32.7264L222.845 38.3058L242.93 29.7913Z" fill="#525151"/>
</g>
<g opacity="0.975">
<path d="M87.1438 88.5263L67.0588 97.0405L69.4239 102.62L89.5089 94.1056L87.1438 88.5263Z" fill="#525151"/>
</g>
<g opacity="0.975">
<path d="M178.348 70.1249C183.372 70.1249 187.445 66.0521 187.445 61.0281C187.445 56.0041 183.372 51.9313 178.348 51.9313C173.324 51.9313 169.252 56.0041 169.252 61.0281C169.252 66.0521 173.324 70.1249 178.348 70.1249Z" fill="#E5E5E5"/>
</g>
<g opacity="0.975">
<path d="M153.181 44.6539C158.205 44.6539 162.277 40.5811 162.277 35.5571C162.277 30.5331 158.205 26.4603 153.181 26.4603C148.157 26.4603 144.084 30.5331 144.084 35.5571C144.084 40.5811 148.157 44.6539 153.181 44.6539Z" fill="#E5E5E5"/>
</g>
<g opacity="0.975">
<path d="M131.652 84.3765C136.676 84.3765 140.748 80.3037 140.748 75.2797C140.748 70.2557 136.676 66.1829 131.652 66.1829C126.628 66.1829 122.555 70.2557 122.555 75.2797C122.555 80.3037 126.628 84.3765 131.652 84.3765Z" fill="#E5E5E5"/>
</g>
<g opacity="0.975">
<path d="M151.667 0.0785549C120.435 1.89791 94.6604 27.3689 91.9313 59.5108C90.7184 74.9753 94.6604 90.4398 103.454 102.872C106.789 107.724 109.822 111.059 112.551 113.788C117.402 118.943 120.435 121.975 121.647 131.982L122.254 141.382H114.976V147.446H122.254V155.937H114.976V162.001H122.254V170.491H114.976V176.556H134.989V181.711C134.989 188.685 140.144 194.446 146.209 194.446H163.189C169.557 194.446 174.409 188.685 174.409 181.711V176.556H194.422V170.491H187.144V162.001H194.422V155.937H187.144V147.446H194.422V141.382H187.144L187.447 134.104C188.964 123.188 191.996 119.55 197.454 113.788C200.183 110.756 203.215 107.42 206.551 102.569C213.828 91.6527 217.77 78.9173 217.77 65.5753C218.376 28.2786 188.054 -1.7408 151.667 0.0785549ZM168.647 181.408C168.647 185.046 166.222 188.079 163.493 188.079H146.512C143.48 188.079 141.357 185.046 141.357 181.408V176.253H168.647V181.408ZM181.383 170.188H174.712H135.293H128.622V161.698H181.383V170.188ZM128.622 155.633V147.143H181.383V155.633H128.622ZM202.002 98.6269C198.97 103.175 195.938 106.511 193.512 109.24C188.054 115.304 183.809 119.853 181.989 133.195L181.383 141.079H155.912V119.55L181.08 100.75V72.8527C186.235 71.6398 190.176 66.7882 190.176 61.0269C190.176 54.356 184.718 48.8979 178.047 48.8979C171.376 48.8979 165.918 54.356 165.918 61.0269C165.918 66.7882 169.86 71.3366 175.015 72.8527V98.0205L156.215 112.272V47.3818C161.37 46.1689 165.312 41.3173 165.312 35.556C165.312 28.885 159.854 23.4269 153.183 23.4269C146.512 23.4269 141.054 28.885 141.054 35.556C141.054 41.3173 144.996 45.8657 150.151 47.3818V111.666L134.383 98.0205V87.1044C139.841 85.8914 143.783 81.0398 143.783 75.2785C143.783 68.6076 138.325 63.1495 131.654 63.1495C124.983 63.1495 119.525 68.6076 119.525 75.2785C119.525 80.7366 123.164 85.285 128.318 86.8011V100.75L150.151 119.55V141.079H128.622L127.712 131.375C126.196 119.246 121.951 115.001 116.796 109.543C114.37 106.814 111.338 104.085 108.306 99.5366C100.422 88.014 96.7829 74.0656 97.6926 60.1173C100.422 30.7044 123.77 7.6592 151.97 6.14307C185.022 4.62694 212.312 31.614 212.312 64.9689C212.312 77.0979 208.673 88.9237 202.002 98.6269ZM153.183 41.6205C149.847 41.6205 147.118 38.8915 147.118 35.556C147.118 32.2205 149.847 29.4915 153.183 29.4915C156.518 29.4915 159.247 32.2205 159.247 35.556C159.247 38.8915 156.518 41.6205 153.183 41.6205ZM178.351 67.0915C175.015 67.0915 172.286 64.3624 172.286 61.0269C172.286 57.6915 175.015 54.9624 178.351 54.9624C181.686 54.9624 184.415 57.6915 184.415 61.0269C184.415 64.3624 181.686 67.0915 178.351 67.0915ZM131.654 81.3431C128.318 81.3431 125.589 78.614 125.589 75.2785C125.589 71.9431 128.318 69.214 131.654 69.214C134.989 69.214 137.718 71.9431 137.718 75.2785C137.718 78.614 134.989 81.3431 131.654 81.3431Z" fill="#525151"/>
</g>
</g>
</svg>
