<svg width="203" height="48" viewBox="0 0 203 48" fill="none" xmlns="http://www.w3.org/2000/svg">
<path d="M55.3164 10.3203V23.9727H58.7383H58.75C59.6719 23.9727 60.4727 23.6406 61.1523 22.9766C61.8242 22.3203 62.1602 21.5234 62.1602 20.5859V13.6953C62.1602 12.7656 61.8242 11.9688 61.1523 11.3047C60.4805 10.6406 59.6797 10.3086 58.75 10.3086H58.7383L55.3164 10.3203ZM58.7383 25.7656H53.4414V9.33594L55.3164 8.51562H58.7383H58.75C60.2109 8.51562 61.457 9.02734 62.4883 10.0508C63.5195 11.0664 64.0352 12.293 64.0352 13.7305V20.5508C64.0352 21.9883 63.5195 23.2188 62.4883 24.2422C61.457 25.2578 60.2109 25.7656 58.75 25.7656H58.7383ZM77.5 13.5078C77.5 13.5078 77.5 15.9336 77.5 20.7852C77.5 22.2227 76.9844 23.4531 75.9531 24.4766C74.9219 25.4922 73.6758 26 72.2148 26C70.7461 26 69.5 25.4922 68.4766 24.4766C67.4453 23.4531 66.9297 22.2227 66.9297 20.7852V13.5078C66.9297 12.0703 67.4453 10.8438 68.4766 9.82812C69.5078 8.80469 70.7539 8.29297 72.2148 8.29297C73.6758 8.29297 74.9219 8.80469 75.9531 9.82812C76.9844 10.8438 77.5 12.0703 77.5 13.5078ZM68.8047 13.4727V20.8203C68.8047 21.75 69.1367 22.5469 69.8008 23.2109C70.4648 23.875 71.2695 24.207 72.2148 24.207C73.1445 24.207 73.9453 23.875 74.6172 23.2109C75.2812 22.5547 75.6172 21.7578 75.625 20.8203V13.4727C75.6172 12.5352 75.2812 11.7383 74.6172 11.082C73.9453 10.418 73.1445 10.0859 72.2148 10.0859C71.2695 10.0859 70.4648 10.418 69.8008 11.082C69.1367 11.7383 68.8047 12.5352 68.8047 13.4727ZM84.7539 26V10.4023H79.4805L80.3008 8.52734H91.9023L91.082 10.4023H86.6289V25.1797L84.7539 26ZM95.7461 10.3203V23.9727H99.168H99.1797C100.102 23.9727 100.902 23.6406 101.582 22.9766C102.254 22.3203 102.59 21.5234 102.59 20.5859V13.6953C102.59 12.7656 102.254 11.9688 101.582 11.3047C100.91 10.6406 100.109 10.3086 99.1797 10.3086H99.168L95.7461 10.3203ZM99.168 25.7656H93.8711V9.33594L95.7461 8.51562H99.168H99.1797C100.641 8.51562 101.887 9.02734 102.918 10.0508C103.949 11.0664 104.465 12.293 104.465 13.7305V20.5508C104.465 21.9883 103.949 23.2188 102.918 24.2422C101.887 25.2578 100.641 25.7656 99.1797 25.7656H99.168ZM110.172 18.0898V23.8906H118.516L117.695 25.7656H108.297V9.33594L110.172 8.51562L116.992 8.52734L116.172 10.4023H110.172V16.2148H116.992L116.172 18.0898H110.172ZM125.148 26L119.934 9.11328L121.645 8.29297L126.121 22.7891L130.621 8.29297L132.309 9.11328L127.258 25.1797L125.148 26ZM138.52 25.5547C138.223 25.25 138.074 24.8828 138.074 24.4531C138.074 24.0234 138.223 23.6602 138.52 23.3633C138.816 23.0586 139.176 22.9062 139.598 22.9062C140.02 22.9062 140.379 23.0586 140.676 23.3633C140.973 23.6602 141.121 24.0234 141.121 24.4531C141.121 24.8828 140.973 25.25 140.676 25.5547C140.379 25.8516 140.02 26 139.598 26C139.176 26 138.816 25.8516 138.52 25.5547ZM153.062 15.3594C154.586 15.5312 155.832 16.0859 156.801 17.0234C157.832 18.0234 158.348 19.25 158.348 20.7031V20.7383C158.348 22.2227 157.84 23.4688 156.824 24.4766C155.801 25.4922 154.555 26 153.086 26C151.602 26 150.355 25.4922 149.348 24.4766C148.316 23.4297 147.801 22.1992 147.801 20.7852V20.6328L149.676 19.8125V20.8203C149.676 21.7578 150.012 22.5547 150.684 23.2109C151.355 23.875 152.156 24.207 153.086 24.207C154.031 24.207 154.836 23.875 155.5 23.2109C156.164 22.5391 156.496 21.7383 156.496 20.8086C156.496 19.832 156.176 19.0391 155.535 18.4297C154.801 17.7344 154 17.3555 153.133 17.293C151.648 17.1758 150.484 16.6953 149.641 15.8516C148.766 14.9844 148.328 13.9375 148.328 12.7109C148.328 11.4766 148.758 10.4336 149.617 9.58203C150.477 8.72266 151.516 8.29297 152.734 8.29297C153.969 8.29297 155.012 8.72266 155.863 9.58203C156.73 10.457 157.164 11.4961 157.164 12.6992V12.8164L155.289 13.6602V12.7344C155.273 12.0078 155.023 11.4062 154.539 10.9297C154.031 10.4297 153.43 10.1797 152.734 10.1797C152.039 10.1797 151.449 10.4219 150.965 10.9062C150.465 11.4141 150.215 12.0156 150.215 12.7109C150.215 13.4062 150.465 14.0039 150.965 14.5039C151.434 14.9727 152.133 15.2578 153.062 15.3594ZM162.262 8.52734H171.66L170.84 10.4023H167.488V23.8906H171.66L170.84 25.7656H161.441L162.262 23.8906H165.613V10.4023H161.441L162.262 8.52734ZM179.09 26V10.4023H173.816L174.637 8.52734H186.238L185.418 10.4023H180.965V25.1797L179.09 26ZM191.031 18.0898V23.8906H199.375L198.555 25.7656H189.156V9.33594L191.031 8.51562L197.852 8.52734L197.031 10.4023H191.031V16.2148H197.852L197.031 18.0898H191.031Z" fill="#E5E5E5"/>
<path d="M54.7969 40.0391C54.7969 40.5182 54.9714 40.9193 55.3203 41.2422C55.6745 41.5703 56.0781 41.7344 56.5312 41.7344C56.9688 41.7344 57.3542 41.5703 57.6875 41.2422C58.0104 40.9245 58.1771 40.5234 58.1875 40.0391V37.2109C58.1771 36.7266 58.0104 36.3255 57.6875 36.0078C57.3542 35.6797 56.9375 35.5156 56.4375 35.5156C56 35.5156 55.6172 35.6797 55.2891 36.0078C54.9661 36.3307 54.8021 36.7161 54.7969 37.1641V37.2109V40.0391ZM59.4375 31.1953V40.0625C59.4375 40.875 59.1484 41.5677 58.5703 42.1406C57.9922 42.7135 57.2969 43 56.4844 43C55.6719 43 54.9792 42.7135 54.4062 42.1406C53.8333 41.5677 53.5469 40.875 53.5469 40.0625V37.1875C53.5469 36.375 53.8333 35.6823 54.4062 35.1094C54.9792 34.5365 55.6719 34.25 56.4844 34.25C57.125 34.25 57.6927 34.4271 58.1875 34.7812V31.7422L59.4375 31.1953ZM67.1719 39.9844L68.4219 39.4375V40.0625C68.4219 40.875 68.1354 41.5677 67.5625 42.1406C66.9896 42.7135 66.2969 43 65.4844 43C64.6719 43 63.9766 42.7135 63.3984 42.1406C62.8203 41.5677 62.5312 40.875 62.5312 40.0625V34.7969L63.7812 34.25V40.0391C63.7917 40.5234 63.9583 40.9245 64.2812 41.2422C64.6146 41.5703 65.0312 41.7344 65.5312 41.7344C65.9688 41.7344 66.3516 41.5573 66.6797 41.2031C67.0078 40.849 67.1719 40.4427 67.1719 39.9844ZM62.4219 32.9609C62.224 32.7578 62.125 32.513 62.125 32.2266C62.125 31.9401 62.224 31.6979 62.4219 31.5C62.6198 31.2969 62.8594 31.1953 63.1406 31.1953C63.4219 31.1953 63.6615 31.2969 63.8594 31.5C64.0573 31.6979 64.1562 31.9401 64.1562 32.2266C64.1562 32.513 64.0573 32.7578 63.8594 32.9609C63.6615 33.1589 63.4219 33.2578 63.1406 33.2578C62.8594 33.2578 62.6198 33.1589 62.4219 32.9609ZM71.5156 43V37.7188H70.5625L71.1094 36.4688H71.5156V34.1328C71.5156 33.3203 71.8021 32.6276 72.375 32.0547C72.9479 31.4818 73.6406 31.1953 74.4531 31.1953C75.2812 31.1953 75.9766 31.4818 76.5391 32.0547C77.1172 32.6484 77.4062 33.3411 77.4062 34.1328V34.1641L76.1562 34.7109V34.1562C76.1458 33.6719 75.9792 33.2708 75.6562 32.9531C75.3177 32.6198 74.9167 32.4531 74.4531 32.4531C73.9896 32.4531 73.5911 32.6198 73.2578 32.9531C72.9297 33.2812 72.7656 33.6745 72.7656 34.1328C72.7656 34.1432 72.7656 34.151 72.7656 34.1562V36.4688H76.4531L75.9062 37.7188H72.7656V42.4531L71.5156 43ZM80.5 43V37.7188H79.5469L80.0938 36.4688H80.5V34.1328C80.5 33.3203 80.7865 32.6276 81.3594 32.0547C81.9323 31.4818 82.625 31.1953 83.4375 31.1953C84.2656 31.1953 84.9609 31.4818 85.5234 32.0547C86.1016 32.6484 86.3906 33.3411 86.3906 34.1328V34.1641L85.1406 34.7109V34.1562C85.1302 33.6719 84.9635 33.2708 84.6406 32.9531C84.3021 32.6198 83.901 32.4531 83.4375 32.4531C82.974 32.4531 82.5755 32.6198 82.2422 32.9531C81.9141 33.2812 81.75 33.6745 81.75 34.1328C81.75 34.1432 81.75 34.151 81.75 34.1562V36.4688H85.4375L84.8906 37.7188H81.75V42.4531L80.5 43ZM92.4688 41.7344C92.9062 41.7344 93.2917 41.5703 93.625 41.2422C93.9479 40.9245 94.1146 40.5234 94.125 40.0391V39.9297L95.375 39.375V40.0625C95.375 40.7917 95.0625 41.4896 94.4375 42.1562C93.9062 42.7188 93.2344 43 92.4219 43C91.6094 43 90.9167 42.7135 90.3438 42.1406C89.7708 41.5677 89.4844 40.875 89.4844 40.0625V37.1875C89.4844 36.375 89.7708 35.6823 90.3438 35.1094C90.9167 34.5365 91.6094 34.25 92.4219 34.25C93.2031 34.25 93.8984 34.5365 94.5078 35.1094C95.0859 35.651 95.375 36.3438 95.375 37.1875V37.9219L90.7344 39.9844C90.7344 40.4792 90.8984 40.8958 91.2266 41.2344C91.5547 41.5677 91.9688 41.7344 92.4688 41.7344ZM92.375 35.5156C91.9375 35.5156 91.5547 35.6797 91.2266 36.0078C90.8984 36.3359 90.7344 36.7292 90.7344 37.1875C90.7344 37.1979 90.7344 37.2057 90.7344 37.2109V38.6172L94.1172 37.1094C94.0911 36.6719 93.9271 36.3047 93.625 36.0078C93.2917 35.6797 92.875 35.5156 92.375 35.5156ZM98.4688 43V37.1875C98.4688 36.375 98.7552 35.6823 99.3281 35.1094C99.901 34.5365 100.594 34.25 101.406 34.25C102.234 34.25 102.93 34.5365 103.492 35.1094C104.07 35.7031 104.359 36.3958 104.359 37.1875V37.2188L103.109 37.7656V37.2109C103.099 36.7266 102.932 36.3255 102.609 36.0078C102.276 35.6797 101.883 35.5156 101.43 35.5156C100.956 35.5156 100.552 35.6797 100.219 36.0078C99.8854 36.3359 99.7188 36.7292 99.7188 37.1875C99.7188 37.1979 99.7188 37.2057 99.7188 37.2109V42.4531L98.4688 43ZM110.438 41.7344C110.875 41.7344 111.26 41.5703 111.594 41.2422C111.917 40.9245 112.083 40.5234 112.094 40.0391V39.9297L113.344 39.375V40.0625C113.344 40.7917 113.031 41.4896 112.406 42.1562C111.875 42.7188 111.203 43 110.391 43C109.578 43 108.885 42.7135 108.312 42.1406C107.74 41.5677 107.453 40.875 107.453 40.0625V37.1875C107.453 36.375 107.74 35.6823 108.312 35.1094C108.885 34.5365 109.578 34.25 110.391 34.25C111.172 34.25 111.867 34.5365 112.477 35.1094C113.055 35.651 113.344 36.3438 113.344 37.1875V37.9219L108.703 39.9844C108.703 40.4792 108.867 40.8958 109.195 41.2344C109.523 41.5677 109.938 41.7344 110.438 41.7344ZM110.344 35.5156C109.906 35.5156 109.523 35.6797 109.195 36.0078C108.867 36.3359 108.703 36.7292 108.703 37.1875C108.703 37.1979 108.703 37.2057 108.703 37.2109V38.6172L112.086 37.1094C112.06 36.6719 111.896 36.3047 111.594 36.0078C111.26 35.6797 110.844 35.5156 110.344 35.5156ZM116.438 43V37.1875C116.438 36.375 116.724 35.6823 117.297 35.1094C117.87 34.5365 118.562 34.25 119.375 34.25C120.188 34.25 120.883 34.5365 121.461 35.1094C122.039 35.6823 122.328 36.375 122.328 37.1875V42.4531L121.078 43V37.2109C121.068 36.7266 120.901 36.3255 120.578 36.0078C120.245 35.6797 119.852 35.5156 119.398 35.5156C118.93 35.5156 118.526 35.6823 118.188 36.0156C117.854 36.3385 117.688 36.7292 117.688 37.1875C117.688 37.1979 117.688 37.2057 117.688 37.2109V42.4531L116.438 43ZM130.062 39.9844C130.062 39.9844 130.479 39.8021 131.312 39.4375V40.0625C131.312 40.875 131.026 41.5677 130.453 42.1406C129.88 42.7135 129.188 43 128.375 43C127.562 43 126.867 42.7135 126.289 42.1406C125.711 41.5677 125.422 40.875 125.422 40.0625V35.6562H124.453L125 34.4062H125.422V31.7422L126.672 31.1953V34.4062H130.641L130.094 35.6562H126.672V40.0391C126.682 40.5286 126.849 40.9297 127.172 41.2422C127.51 41.5703 127.906 41.7344 128.359 41.7344C128.823 41.7344 129.224 41.5677 129.562 41.2344C129.896 40.9115 130.062 40.4948 130.062 39.9844ZM145.688 43L142.43 34.7969L143.57 34.25L146.336 41.2188L149.117 34.2344L150.242 34.7812L147.094 42.4531L145.688 43ZM157.016 39.9844L158.266 39.4375V40.0625C158.266 40.875 157.979 41.5677 157.406 42.1406C156.833 42.7135 156.141 43 155.328 43C154.516 43 153.82 42.7135 153.242 42.1406C152.664 41.5677 152.375 40.875 152.375 40.0625V34.7969L153.625 34.25V40.0391C153.635 40.5234 153.802 40.9245 154.125 41.2422C154.458 41.5703 154.875 41.7344 155.375 41.7344C155.812 41.7344 156.195 41.5573 156.523 41.2031C156.852 40.849 157.016 40.4427 157.016 39.9844ZM152.266 32.9609C152.068 32.7578 151.969 32.513 151.969 32.2266C151.969 31.9401 152.068 31.6979 152.266 31.5C152.464 31.2969 152.703 31.1953 152.984 31.1953C153.266 31.1953 153.505 31.2969 153.703 31.5C153.901 31.6979 154 31.9401 154 32.2266C154 32.513 153.901 32.7578 153.703 32.9609C153.505 33.1589 153.266 33.2578 152.984 33.2578C152.703 33.2578 152.464 33.1589 152.266 32.9609ZM164.344 41.7344C164.781 41.7344 165.167 41.5703 165.5 41.2422C165.823 40.9245 165.99 40.5234 166 40.0391V39.9297L167.25 39.375V40.0625C167.25 40.7917 166.938 41.4896 166.312 42.1562C165.781 42.7188 165.109 43 164.297 43C163.484 43 162.792 42.7135 162.219 42.1406C161.646 41.5677 161.359 40.875 161.359 40.0625V37.1875C161.359 36.375 161.646 35.6823 162.219 35.1094C162.792 34.5365 163.484 34.25 164.297 34.25C165.078 34.25 165.773 34.5365 166.383 35.1094C166.961 35.651 167.25 36.3438 167.25 37.1875V37.9219L162.609 39.9844C162.609 40.4792 162.773 40.8958 163.102 41.2344C163.43 41.5677 163.844 41.7344 164.344 41.7344ZM164.25 35.5156C163.812 35.5156 163.43 35.6797 163.102 36.0078C162.773 36.3359 162.609 36.7292 162.609 37.1875C162.609 37.1979 162.609 37.2057 162.609 37.2109V38.6172L165.992 37.1094C165.966 36.6719 165.802 36.3047 165.5 36.0078C165.167 35.6797 164.75 35.5156 164.25 35.5156ZM169.656 40.8672V34.7969L170.906 34.25L170.898 40.8359C170.898 41.0964 170.984 41.3177 171.156 41.5C171.328 41.6823 171.531 41.7734 171.766 41.7734C172.01 41.7734 172.219 41.6823 172.391 41.5C172.568 41.3125 172.656 41.0938 172.656 40.8438C172.656 40.8438 172.656 40.8411 172.656 40.8359L172.664 34.7969L173.914 34.25L173.906 40.8359C173.906 41.0964 173.992 41.3177 174.164 41.5C174.336 41.6823 174.539 41.7734 174.773 41.7734C175.013 41.7734 175.221 41.6823 175.398 41.5C175.576 41.3177 175.664 41.0964 175.664 40.8359L175.672 34.7969L176.922 34.25V40.875C176.922 41.4583 176.714 41.9583 176.297 42.375C175.88 42.7917 175.378 43 174.789 43C174.18 43 173.677 42.7969 173.281 42.3906C172.865 42.7969 172.365 43 171.781 43C171.156 43 170.648 42.7969 170.258 42.3906C169.862 41.9792 169.661 41.4714 169.656 40.8672Z" fill="#F8981D"/>
<g opacity="0.975">
<g opacity="0.975">
<path d="M28.5503 35.4089H14.9415V42.1432H28.5503V35.4089Z" fill="#F8981D"/>
</g>
<g opacity="0.975">
<path d="M25.6037 42.0719H17.8875V43.9659C17.8875 45.1584 18.7292 46.2106 19.7815 46.2106H23.7097C24.762 46.2106 25.6037 45.2286 25.6037 43.9659V42.0719Z" fill="#F8981D"/>
</g>
<g opacity="0.975">
<path d="M35.705 17.029C35.705 8.89182 29.0409 2.29789 21.044 2.71878C14.1695 3.06952 8.41738 8.75152 7.8562 15.7663C7.5756 19.3439 8.55768 22.711 10.3815 25.3766C12.6263 28.6034 14.2397 28.5333 14.7307 32.4616L14.9412 35.4078H28.5499L28.6902 32.8825C29.2514 28.7437 30.8648 28.6736 33.1797 25.2363C34.7931 22.9214 35.705 20.1155 35.705 17.029Z" fill="#525151"/>
</g>
<g opacity="0.975">
<path d="M36.9142 23.773L41.5606 25.7427L42.1078 24.4519L37.4613 22.4823L36.9142 23.773Z" fill="#E5E5E5"/>
</g>
<g opacity="0.975">
<path d="M1.39023 8.88755L6.03668 10.8572L6.58384 9.56651L1.93739 7.59682L1.39023 8.88755Z" fill="#E5E5E5"/>
</g>
<g opacity="0.975">
<path d="M43.4918 15.9779H38.4412V17.3809H43.4918V15.9779Z" fill="#E5E5E5"/>
</g>
<g opacity="0.975">
<path d="M5.05066 15.9779H0V17.3809H5.05066V15.9779Z" fill="#E5E5E5"/>
</g>
<g opacity="0.975">
<path d="M42.0876 8.89192L41.5405 7.6012L36.8939 9.57092L37.4411 10.8616L42.0876 8.89192Z" fill="#E5E5E5"/>
</g>
<g opacity="0.975">
<path d="M6.04806 22.4796L1.40161 24.4493L1.94877 25.74L6.59522 23.7704L6.04806 22.4796Z" fill="#E5E5E5"/>
</g>
<g opacity="0.975">
<path d="M27.1474 18.2227C28.3096 18.2227 29.2518 17.2805 29.2518 16.1182C29.2518 14.956 28.3096 14.0138 27.1474 14.0138C25.9851 14.0138 25.0429 14.956 25.0429 16.1182C25.0429 17.2805 25.9851 18.2227 27.1474 18.2227Z" fill="#F8981D"/>
</g>
<g opacity="0.975">
<path d="M21.325 12.3302C22.4873 12.3302 23.4295 11.388 23.4295 10.2258C23.4295 9.06351 22.4873 8.12132 21.325 8.12132C20.1628 8.12132 19.2206 9.06351 19.2206 10.2258C19.2206 11.388 20.1628 12.3302 21.325 12.3302Z" fill="#F8981D"/>
</g>
<g opacity="0.975">
<path d="M16.3445 21.5196C17.5067 21.5196 18.4489 20.5774 18.4489 19.4152C18.4489 18.2529 17.5067 17.3107 16.3445 17.3107C15.1822 17.3107 14.2401 18.2529 14.2401 19.4152C14.2401 20.5774 15.1822 21.5196 16.3445 21.5196Z" fill="#F8981D"/>
</g>
<g opacity="0.975">
<path d="M20.9748 2.01817C13.7496 2.43906 7.78698 8.3315 7.15565 15.7672C6.87506 19.3448 7.78698 22.9223 9.82128 25.7984C10.5929 26.9208 11.2944 27.6924 11.9257 28.3237C13.0481 29.5162 13.7496 30.2177 14.0302 32.5326L14.1705 34.7072H12.4869V36.1102H14.1705V38.0743H12.4869V39.4773H14.1705V41.4414H12.4869V42.8444H17.1167V44.0369C17.1167 45.6503 18.3092 46.9831 19.7122 46.9831H23.6405C25.1136 46.9831 26.2359 45.6503 26.2359 44.0369V42.8444H30.8657V41.4414H29.1822V39.4773H30.8657V38.0743H29.1822V36.1102H30.8657V34.7072H29.1822L29.2523 33.0236C29.603 30.4983 30.3045 29.6565 31.5672 28.3237C32.1985 27.6222 32.9 26.8506 33.6716 25.7282C35.3552 23.2029 36.2671 20.2567 36.2671 17.1702C36.4074 8.54195 29.3926 1.59728 20.9748 2.01817ZM24.9031 43.9668C24.9031 44.8085 24.3419 45.51 23.7106 45.51H19.7823C19.0808 45.51 18.5898 44.8085 18.5898 43.9668V42.7742H24.9031V43.9668ZM27.8493 41.3713H26.3061H17.1868H15.6436V39.4071H27.8493V41.3713ZM15.6436 38.0042V36.04H27.8493V38.0042H15.6436ZM32.6194 24.8163C31.9179 25.8685 31.2165 26.6402 30.6553 27.2715C29.3926 28.6745 28.4105 29.7267 27.9896 32.8132L27.8493 34.6371H21.9569V29.6565L27.7792 25.3074V18.8537C28.9717 18.5731 29.8836 17.4508 29.8836 16.1179C29.8836 14.5747 28.621 13.312 27.0777 13.312C25.5345 13.312 24.2718 14.5747 24.2718 16.1179C24.2718 17.4508 25.1837 18.503 26.3762 18.8537V24.676L22.0271 27.973V12.9613C23.2196 12.6807 24.1315 11.5583 24.1315 10.2255C24.1315 8.68225 22.8688 7.41958 21.3256 7.41958C19.7823 7.41958 18.5196 8.68225 18.5196 10.2255C18.5196 11.5583 19.4316 12.6105 20.6241 12.9613V27.8327L16.9764 24.676V22.1507C18.2391 21.8701 19.151 20.7477 19.151 19.4149C19.151 17.8716 17.8883 16.609 16.3451 16.609C14.8018 16.609 13.5391 17.8716 13.5391 19.4149C13.5391 20.6776 14.3809 21.7298 15.5734 22.0805V25.3074L20.6241 29.6565V34.6371H15.6436L15.4331 32.3923C15.0824 29.5864 14.1003 28.6043 12.9078 27.3416C12.3466 26.7103 11.6451 26.079 10.9436 25.0268C9.1198 22.3611 8.27802 19.1343 8.48846 15.9075C9.1198 9.10313 14.5212 3.77188 21.045 3.42114C28.6911 3.07039 35.0045 9.31358 35.0045 17.0299C35.0045 19.8358 34.1627 22.5716 32.6194 24.8163ZM21.3256 11.6285C20.5539 11.6285 19.9226 10.9971 19.9226 10.2255C19.9226 9.45387 20.5539 8.82254 21.3256 8.82254C22.0972 8.82254 22.7285 9.45387 22.7285 10.2255C22.7285 10.9971 22.0972 11.6285 21.3256 11.6285ZM27.1479 17.5209C26.3762 17.5209 25.7449 16.8896 25.7449 16.1179C25.7449 15.3463 26.3762 14.715 27.1479 14.715C27.9195 14.715 28.5508 15.3463 28.5508 16.1179C28.5508 16.8896 27.9195 17.5209 27.1479 17.5209ZM16.3451 20.8179C15.5734 20.8179 14.9421 20.1865 14.9421 19.4149C14.9421 18.6433 15.5734 18.0119 16.3451 18.0119C17.1167 18.0119 17.748 18.6433 17.748 19.4149C17.748 20.1865 17.1167 20.8179 16.3451 20.8179Z" fill="#E5E5E5"/>
</g>
</g>
</svg>
