<svg width="47" height="48" viewBox="0 0 47 48" fill="none" xmlns="http://www.w3.org/2000/svg">
<path d="M41.9643 0H5.03571C3.70016 0 2.41931 0.533369 1.47493 1.48277C0.530547 2.43217 0 3.71984 0 5.0625L0 42.1875C0 43.5302 0.530547 44.8178 1.47493 45.7672C2.41931 46.7166 3.70016 47.25 5.03571 47.25H19.4347V31.1861H12.8253V23.625H19.4347V17.8622C19.4347 11.3073 23.3164 7.68656 29.2617 7.68656C32.109 7.68656 35.0863 8.19703 35.0863 8.19703V14.6306H31.8058C28.5735 14.6306 27.5653 16.6472 27.5653 18.7154V23.625H34.781L33.627 31.1861H27.5653V47.25H41.9643C43.2998 47.25 44.5807 46.7166 45.5251 45.7672C46.4695 44.8178 47 43.5302 47 42.1875V5.0625C47 3.71984 46.4695 2.43217 45.5251 1.48277C44.5807 0.533369 43.2998 0 41.9643 0V0Z" fill="#E5E5E5"/>
</svg>
