<svg width="47" height="47" viewBox="0 0 47 47" fill="none" xmlns="http://www.w3.org/2000/svg">
<path d="M43.6429 0H3.34665C1.50022 0 0 1.52121 0 3.38862V43.6114C0 45.4788 1.50022 47 3.34665 47H43.6429C45.4893 47 47 45.4788 47 43.6114V3.38862C47 1.52121 45.4893 0 43.6429 0ZM14.2049 40.2857H7.23884V17.8558H14.2154V40.2857H14.2049ZM10.7219 14.7924C8.48728 14.7924 6.68281 12.9775 6.68281 10.7533C6.68281 8.52924 8.48728 6.71429 10.7219 6.71429C12.946 6.71429 14.7609 8.52924 14.7609 10.7533C14.7609 12.9879 12.9565 14.7924 10.7219 14.7924V14.7924ZM40.3172 40.2857H33.3511V29.375C33.3511 26.7732 33.2987 23.4266 29.7317 23.4266C26.1018 23.4266 25.5458 26.2592 25.5458 29.1862V40.2857H18.5797V17.8558H25.2625V20.9192H25.3569C26.2906 19.1567 28.5672 17.2998 31.9558 17.2998C39.0058 17.2998 40.3172 21.9473 40.3172 27.9902V40.2857V40.2857Z" fill="#E5E5E5"/>
</svg>
