<svg width="47" height="46" viewBox="0 0 47 46" fill="none" xmlns="http://www.w3.org/2000/svg">
<path d="M41.9643 0H5.03571C2.25558 0 0 2.20759 0 4.92857V41.0714C0 43.7924 2.25558 46 5.03571 46H41.9643C44.7444 46 47 43.7924 47 41.0714V4.92857C47 2.20759 44.7444 0 41.9643 0ZM36.8342 16.3054C36.8551 16.5929 36.8551 16.8906 36.8551 17.1781C36.8551 26.0804 29.931 36.3379 17.2788 36.3379C13.3761 36.3379 9.7567 35.229 6.71429 33.3192C7.27031 33.3808 7.80536 33.4013 8.37188 33.4013C11.5926 33.4013 14.5511 32.3335 16.9116 30.5263C13.8902 30.4647 11.3513 28.5241 10.4806 25.8545C11.5402 26.0085 12.4949 26.0085 13.5859 25.7313C10.4386 25.1049 8.07813 22.3942 8.07813 19.1188V19.0366C8.99085 19.5397 10.0609 19.8478 11.1835 19.8888C10.2397 19.2744 9.46608 18.4409 8.93154 17.4627C8.39701 16.4845 8.11823 15.3919 8.12009 14.2826C8.12009 13.0299 8.4558 11.8799 9.0538 10.8839C12.4424 14.9705 17.5306 17.6402 23.2377 17.9277C22.2621 13.3585 25.7556 9.65179 29.952 9.65179C31.9348 9.65179 33.7183 10.4629 34.9772 11.7772C36.5299 11.4897 38.0196 10.925 39.3415 10.1549C38.8275 11.7156 37.7469 13.0299 36.3201 13.8616C37.7049 13.7179 39.0478 13.3379 40.2857 12.8143C39.352 14.1594 38.177 15.3504 36.8342 16.3054Z" fill="#E5E5E5"/>
</svg>
