<svg width="1440" height="289" viewBox="0 0 1440 289" fill="none" xmlns="http://www.w3.org/2000/svg">
<path d="M-677 315.158V4.84181H-461.102V67.3453H-596.258V129.849H-470.756V191.912H-596.258V315.158H-677Z" fill="url(#paint0_linear_1_5)"/>
<path d="M-431.657 315.158V4.84181H-282.899C-247.793 4.84181 -220.733 13.4984 -201.718 30.8116C-182.41 47.8313 -172.756 71.6002 -172.756 102.118C-172.756 121.779 -177.144 138.945 -185.92 153.618C-194.404 167.996 -206.837 179.147 -223.22 187.07C-239.31 194.7 -259.203 198.514 -282.899 198.514L-279.388 190.591H-258.325C-245.746 190.591 -234.629 193.673 -224.975 199.835C-215.321 205.704 -207.276 214.801 -200.84 227.125L-152.57 315.158H-241.211L-294.747 216.561C-297.087 212.16 -299.866 208.785 -303.084 206.437C-306.302 204.09 -309.959 202.329 -314.055 201.155C-317.858 199.982 -322.1 199.395 -326.78 199.395H-350.915V315.158H-431.657ZM-350.915 142.173H-297.38C-281.875 142.173 -270.027 139.092 -261.835 132.93C-253.644 126.768 -249.549 117.231 -249.549 104.319C-249.549 91.9945 -253.644 82.751 -261.835 76.5887C-270.027 70.133 -281.875 66.9051 -297.38 66.9051H-350.915V142.173Z" fill="url(#paint1_linear_1_5)"/>
<path d="M-130.606 315.158V4.84181H87.9249V67.3453H-53.3739V126.327H77.8321V188.831H-53.3739V252.655H87.9249V315.158H-130.606Z" fill="url(#paint2_linear_1_5)"/>
<path d="M130.164 315.158V4.84181H348.695V67.3453H207.396V126.327H338.602V188.831H207.396V252.655H348.695V315.158H130.164Z" fill="url(#paint3_linear_1_5)"/>
<path d="M390.934 315.158V4.84181H471.676V247.813H609.465V315.158H390.934Z" fill="url(#paint4_linear_1_5)"/>
<path d="M597.692 315.158L742.501 4.84181H806.13L950.939 315.158H870.197L833.775 229.766L864.492 252.215H683.7L714.856 229.766L678.434 315.158H597.692ZM773.657 89.3535L722.755 211.279L710.468 190.151H838.163L825.876 211.279L774.535 89.3535H773.657Z" fill="url(#paint5_linear_1_5)"/>
<path d="M960.898 315.158V4.84181H1020.14L1174.6 198.074H1162.31V4.84181H1236.91V315.158H1178.11L1023.65 121.486H1035.94V315.158H960.898Z" fill="url(#paint6_linear_1_5)"/>
<path d="M1440.88 320C1406.65 320 1377.25 313.398 1352.68 300.193C1328.1 286.988 1309.24 268.354 1296.07 244.292C1283.2 220.229 1276.76 192.059 1276.76 159.78C1276.76 127.501 1283.2 99.4773 1296.07 75.7084C1309.24 51.646 1328.1 33.0124 1352.68 19.8074C1377.25 6.60248 1406.65 0 1440.88 0C1461.36 0 1481.11 3.08115 1500.12 9.24345C1519.14 15.4058 1534.49 23.7689 1546.2 34.3329L1522.06 98.1568C1509.19 88.7666 1496.32 81.8707 1483.45 77.469C1470.57 72.7739 1457.41 70.4264 1443.95 70.4264C1416.75 70.4264 1396.27 78.2027 1382.52 93.7552C1368.77 109.014 1361.89 131.022 1361.89 159.78C1361.89 188.831 1368.77 211.132 1382.52 226.685C1396.27 241.944 1416.75 249.574 1443.95 249.574C1457.41 249.574 1470.57 247.373 1483.45 242.971C1496.32 238.276 1509.19 231.233 1522.06 221.843L1546.2 285.667C1534.49 295.938 1519.14 304.301 1500.12 310.757C1481.11 316.919 1461.36 320 1440.88 320Z" fill="url(#paint7_linear_1_5)"/>
<path d="M1577.14 315.158V4.84181H1795.67V67.3453H1654.37V126.327H1785.58V188.831H1654.37V252.655H1795.67V315.158H1577.14Z" fill="url(#paint8_linear_1_5)"/>
<path d="M1837.91 315.158V4.84181H1986.67C2021.78 4.84181 2048.84 13.4984 2067.85 30.8116C2087.16 47.8313 2096.81 71.6002 2096.81 102.118C2096.81 121.779 2092.43 138.945 2083.65 153.618C2075.17 167.996 2062.73 179.147 2046.35 187.07C2030.26 194.7 2010.37 198.514 1986.67 198.514L1990.18 190.591H2011.25C2023.82 190.591 2034.94 193.673 2044.6 199.835C2054.25 205.704 2062.29 214.801 2068.73 227.125L2117 315.158H2028.36L1974.82 216.561C1972.48 212.16 1969.7 208.785 1966.49 206.437C1963.27 204.09 1959.61 202.329 1955.52 201.155C1951.71 199.982 1947.47 199.395 1942.79 199.395H1918.66V315.158H1837.91ZM1918.66 142.173H1972.19C1987.7 142.173 1999.54 139.092 2007.73 132.93C2015.93 126.768 2020.02 117.231 2020.02 104.319C2020.02 91.9945 2015.93 82.751 2007.73 76.5887C1999.54 70.133 1987.7 66.9051 1972.19 66.9051H1918.66V142.173Z" fill="url(#paint9_linear_1_5)"/>
<defs>
<linearGradient id="paint0_linear_1_5" x1="720" y1="-107" x2="720" y2="383.5" gradientUnits="userSpaceOnUse">
<stop stop-color="#DCDCDC"/>
<stop offset="1" stop-color="#F1F1F1"/>
</linearGradient>
<linearGradient id="paint1_linear_1_5" x1="720" y1="-107" x2="720" y2="383.5" gradientUnits="userSpaceOnUse">
<stop stop-color="#DCDCDC"/>
<stop offset="1" stop-color="#F1F1F1"/>
</linearGradient>
<linearGradient id="paint2_linear_1_5" x1="720" y1="-107" x2="720" y2="383.5" gradientUnits="userSpaceOnUse">
<stop stop-color="#DCDCDC"/>
<stop offset="1" stop-color="#F1F1F1"/>
</linearGradient>
<linearGradient id="paint3_linear_1_5" x1="720" y1="-107" x2="720" y2="383.5" gradientUnits="userSpaceOnUse">
<stop stop-color="#DCDCDC"/>
<stop offset="1" stop-color="#F1F1F1"/>
</linearGradient>
<linearGradient id="paint4_linear_1_5" x1="720" y1="-107" x2="720" y2="383.5" gradientUnits="userSpaceOnUse">
<stop stop-color="#DCDCDC"/>
<stop offset="1" stop-color="#F1F1F1"/>
</linearGradient>
<linearGradient id="paint5_linear_1_5" x1="720" y1="-107" x2="720" y2="383.5" gradientUnits="userSpaceOnUse">
<stop stop-color="#DCDCDC"/>
<stop offset="1" stop-color="#F1F1F1"/>
</linearGradient>
<linearGradient id="paint6_linear_1_5" x1="720" y1="-107" x2="720" y2="383.5" gradientUnits="userSpaceOnUse">
<stop stop-color="#DCDCDC"/>
<stop offset="1" stop-color="#F1F1F1"/>
</linearGradient>
<linearGradient id="paint7_linear_1_5" x1="720" y1="-107" x2="720" y2="383.5" gradientUnits="userSpaceOnUse">
<stop stop-color="#DCDCDC"/>
<stop offset="1" stop-color="#F1F1F1"/>
</linearGradient>
<linearGradient id="paint8_linear_1_5" x1="720" y1="-107" x2="720" y2="383.5" gradientUnits="userSpaceOnUse">
<stop stop-color="#DCDCDC"/>
<stop offset="1" stop-color="#F1F1F1"/>
</linearGradient>
<linearGradient id="paint9_linear_1_5" x1="720" y1="-107" x2="720" y2="383.5" gradientUnits="userSpaceOnUse">
<stop stop-color="#DCDCDC"/>
<stop offset="1" stop-color="#F1F1F1"/>
</linearGradient>
</defs>
</svg>
